<?xml version="1.0" encoding="utf-8"?>
<!-- Generator: Adobe Illustrator 27.5.0, SVG Export Plug-In . SVG Version: 6.00 Build 0)  -->
<svg version="1.1" xmlns="http://www.w3.org/2000/svg" xmlns:xlink="http://www.w3.org/1999/xlink" x="0px" y="0px"
	 viewBox="0 0 500 500" style="enable-background:new 0 0 500 500;" xml:space="preserve">
<g id="BACKGROUND">
	<rect style="fill:#FFFFFF;" width="500" height="500"/>
</g>
<g id="OBJECTS">
	<g>
		<g>
			<g>
				<path style="fill:#FF9E37;" d="M463.795,355.479c-5.225-19.518-16.702-36.644-26.369-54.387
					c-9.666-17.743-17.827-37.527-15.454-57.592c1.822-15.401,9.651-29.315,15.699-43.596c6.047-14.281,10.391-30.568,5.031-45.121
					c-7.181-19.498-30.337-29.462-51.011-27.383c-20.674,2.079-39.142,13.587-55.717,26.117
					c-16.575,12.53-32.387,26.554-51.33,35.091c-18.943,8.537-42.293,10.718-59.769-0.521
					c-22.764-14.64-27.877-45.633-45.009-66.587c-17.224-21.066-47.088-30.372-73.598-24.233
					c-26.51,6.138-48.814,26.837-58.344,52.325s-6.572,55.009,6.477,78.888c7.133,13.052,17.027,24.435,24.176,37.479
					s11.406,28.885,6.12,42.789c-6.42,16.884-24.665,26.051-34.907,40.93c-9.056,13.155-11.151,30.829-5.423,45.737
					c5.728,14.908,19.118,26.632,34.653,30.339l344.694,30.907C456.749,436.184,473.847,393.023,463.795,355.479z"/>
			</g>
			<g>
				<path style="fill:#FFFFFF;" d="M414.478,264.694c-1.026-4.802-0.906-9.784-0.332-14.661c0.431-3.665,1.027-7.72-1.068-10.758
					c-2.096-3.04-6.453-3.947-9.941-2.737c-3.489,1.21-6.152,4.143-7.906,7.393c-3.071,5.691-3.712,12.527-2.378,18.855
					c1.334,6.328,4.548,12.165,8.69,17.132c2.086,2.501,4.49,4.856,7.484,6.138c2.994,1.282,6.685,1.317,9.324-0.592
					c2.802-2.028,3.666-6.223,1.787-9.089C417.642,272.569,415.451,269.25,414.478,264.694z"/>
			</g>
			<g>
				<g>
					<path style="fill:#281F6E;" d="M483.106,278.367c-2.292-5.313-5.57-10.318-10.157-13.845
						c-4.587-3.527-11.274-5.605-16.954-4.506l-21.891,17.097l4.643,6.547c8.477-2.496,17.608-2.732,26.202-0.677
						c8.594,2.055,16.758,5.914,23.188,11.975C486.772,289.335,485.398,283.68,483.106,278.367z"/>
				</g>
				<g>
					<path style="fill:#2AD7BD;" d="M391.841,404.404c-4.362-6.934-3.044-16.187,0.724-23.461
						c3.768-7.274,9.637-13.194,14.67-19.657c5.033-6.463,9.416-14.032,9.331-22.223c-0.104-10.074-6.835-18.777-9.557-28.478
						c-4.147-14.775,1.897-31.512,13.689-41.331c11.792-9.82,28.504-12.557,43.412-8.92c-7.744,3.413-15.476,8.767-18.877,16.516
						c-2.942,6.704-2.048,14.539,0.415,21.434c2.463,6.895,6.377,13.163,9.568,19.751s5.708,13.802,5.055,21.094
						c-0.935,10.447-8.099,19.187-11.561,29.088c-4.527,12.948-2.232,28.072,5.931,39.094"/>
				</g>
				<g>
					<path style="fill:#281F6E;" d="M428.524,408.182c-0.077,0-0.155-0.026-0.22-0.079c-5.206-4.284-7.977-11.817-7.411-20.152
						c0.342-5.042,1.792-10.289,4.564-16.512c1.103-2.479,2.341-4.947,3.537-7.334c2.245-4.48,4.566-9.113,6.075-13.958
						c1.927-6.187,2.386-12.493,1.328-18.239c-0.96-5.215-3.362-10.192-5.684-15.006c-0.518-1.071-1.031-2.137-1.526-3.196
						c-3.113-6.669-6.409-14.452-6.094-22.441c0.824-20.83,23.195-27.878,32.774-29.942c0.199-0.041,0.371,0.079,0.411,0.265
						c0.04,0.186-0.078,0.37-0.265,0.411c-9.423,2.03-31.425,8.948-32.229,29.294c-0.31,7.835,2.949,15.526,6.029,22.121
						c0.493,1.058,1.006,2.12,1.521,3.188c2.343,4.855,4.766,9.876,5.742,15.182c1.078,5.855,0.611,12.277-1.348,18.569
						c-1.526,4.898-3.86,9.558-6.118,14.063c-1.192,2.38-2.426,4.841-3.523,7.306c-2.737,6.146-4.17,11.319-4.506,16.277
						c-0.55,8.113,2.127,15.43,7.161,19.572c0.148,0.121,0.168,0.339,0.047,0.486C428.723,408.139,428.624,408.182,428.524,408.182z
						"/>
				</g>
			</g>
			<g>
				<g>
					<path style="fill:#2AD7BD;" d="M94.443,402.143c5.602-2.661,10.038-7.677,11.996-13.561c1.958-5.884,1.412-12.558-1.478-18.045
						c-5.089-9.662-16.819-15.496-19.09-26.177c-2.971-13.97,12.169-27.725,7.637-41.269c-3.729-11.145-18.368-14.573-24.649-24.507
						c-3.596-5.687-3.98-12.757-5.946-19.191c-2.741-8.972-8.785-16.895-16.716-21.907c-7.93-5.013-17.68-7.074-26.96-5.699
						c7.092,4.849,11.449,13.672,11.396,22.263c-0.044,7.059-2.912,14.002-2.065,21.01c1.781,14.728,18.837,23.794,21.266,38.429
						c2.281,13.746-9.231,27.744-4.755,40.939c1.531,4.514,4.784,8.238,6.728,12.59c3.602,8.064,2.13,18.148-3.628,24.846"/>
				</g>
				<g>
					<path style="fill:#281F6E;" d="M69.691,402.17c-0.112,0-0.222-0.055-0.289-0.154c-0.106-0.159-0.063-0.374,0.096-0.48
						c6.357-4.246,8.33-12.477,8.056-18.764c-0.278-6.404-2.446-12.636-4.541-18.663c-0.255-0.732-0.51-1.465-0.761-2.196
						c-2.208-6.435-4.489-13.923-3.588-21.368c0.435-3.595,1.606-7.123,2.738-10.535c1.581-4.765,3.216-9.692,2.754-14.693
						c-0.687-7.42-5.847-13.63-10.265-18.212c-0.916-0.949-1.851-1.889-2.788-2.829c-4.126-4.143-8.393-8.426-11.016-13.734
						c-2.634-5.33-3.464-11.473-4.197-16.893c-0.765-5.665-1.557-11.524-4.061-16.703c-2.409-4.983-8.461-10.065-14.717-12.359
						c-0.18-0.066-0.272-0.265-0.206-0.444c0.065-0.18,0.267-0.271,0.444-0.206c6.513,2.388,12.581,7.495,15.102,12.708
						c2.552,5.279,3.351,11.193,4.124,16.912c0.726,5.367,1.548,11.451,4.131,16.679c2.573,5.207,6.799,9.449,10.886,13.551
						c0.939,0.943,1.877,1.886,2.796,2.838c4.497,4.663,9.75,10.994,10.456,18.628c0.477,5.146-1.182,10.144-2.786,14.977
						c-1.122,3.38-2.281,6.874-2.708,10.4c-0.884,7.299,1.372,14.697,3.556,21.06c0.25,0.73,0.505,1.462,0.759,2.193
						c2.112,6.074,4.297,12.355,4.58,18.861c0.281,6.475-1.768,14.964-8.364,19.369C69.824,402.151,69.757,402.17,69.691,402.17z"/>
				</g>
			</g>
			<g>
				<g>
					<path style="fill:#00B397;" d="M74.076,414.638c0.635-7.82,3.205-15.33,5.397-22.863c2.192-7.534,4.035-15.367,3.164-23.164
						c-0.165-1.474-0.442-2.98-1.233-4.234s-2.201-2.213-3.678-2.088c-2.082,0.176-3.405,2.259-4.291,4.151
						c-1.826,3.898-3.224,7.996-4.163,12.197c0.83-6.853,1.459-13.094,0.247-19.89c-1.211-6.796-4.11-13.44-9.067-18.244
						c-1.444-1.4-3.333-2.708-5.307-2.329c-2.56,0.493-3.773,3.55-3.685,6.155c0.088,2.606,1.005,5.175,0.731,7.768
						c-1.879-10.774-10.143-20.051-20.468-23.658c-1.881-0.657-3.862-1.135-5.85-1.003c-1.988,0.132-3.994,0.937-5.254,2.48
						c-1.207,1.478-1.616,3.499-1.399,5.395c0.217,1.896,1.009,3.684,1.988,5.322c3.843,6.433,10.611,10.977,13.387,17.937
						c-2.185-1.514-4.119-2.716-6.55-3.792c-2.431-1.076-5.133-1.69-7.762-1.29c-1.866,0.284-3.823,1.258-4.445,3.041
						c-0.631,1.806,0.304,3.769,1.384,5.348c6.32,9.243,17.791,13.537,25.402,21.749c-3.937-3.76-8.795-5.928-14.174-6.771
						c-0.985-0.154-2-0.253-2.971-0.025c-0.97,0.228-1.898,0.833-2.29,1.749c-0.648,1.516,0.329,3.216,1.39,4.479
						c1.73,2.059,3.783,3.818,5.729,5.674c8.866,8.457,15.612,19.121,19.456,30.755"/>
				</g>
				<g>
					<path style="fill:#FFFFFF;" d="M62.054,415.759c-0.205,0-0.374-0.163-0.38-0.369c-0.524-18.125-4.577-36.516-11.718-53.185
						c-6.215-14.503-13.707-24.44-22.904-30.381c-0.176-0.114-0.227-0.35-0.113-0.525c0.114-0.178,0.349-0.228,0.526-0.113
						c9.328,6.024,16.913,16.073,23.19,30.721c7.179,16.755,11.252,35.242,11.78,53.462c0.006,0.21-0.159,0.385-0.369,0.391
						C62.061,415.759,62.057,415.759,62.054,415.759z"/>
				</g>
				<g>
					<path style="fill:#FFFFFF;" d="M61.601,407.769c-0.071,0-0.144-0.021-0.208-0.063c-0.176-0.115-0.225-0.352-0.109-0.527
						c5.489-8.372,9.921-17.338,12.816-25.926c0.067-0.199,0.28-0.308,0.482-0.239c0.199,0.067,0.306,0.283,0.239,0.482
						c-2.915,8.649-7.376,17.675-12.901,26.102C61.846,407.708,61.725,407.769,61.601,407.769z"/>
				</g>
				<g>
					<path style="fill:#FFFFFF;" d="M60.644,399.622c-0.038,0-0.077-0.006-0.115-0.018c-10.281-3.271-20.017-8.74-28.155-15.819
						c-0.159-0.138-0.175-0.378-0.038-0.537c0.138-0.159,0.379-0.175,0.537-0.037c8.061,7.012,17.704,12.43,27.887,15.669
						c0.2,0.064,0.311,0.277,0.247,0.478C60.955,399.519,60.805,399.622,60.644,399.622z"/>
				</g>
				<g>
					<path style="fill:#FFFFFF;" d="M56.004,378.193c-0.036,0-0.072-0.006-0.108-0.017c-0.201-0.06-0.316-0.271-0.257-0.472
						c2.652-8.968,3.911-19.328,3.369-27.715c-0.014-0.21,0.145-0.391,0.355-0.404c0.197-0.007,0.391,0.146,0.404,0.355
						c0.548,8.471-0.723,18.931-3.399,27.979C56.32,378.085,56.169,378.193,56.004,378.193z"/>
				</g>
				<g>
					<path style="fill:#FFFFFF;" d="M54.276,372.994c-0.021,0-0.042-0.002-0.063-0.006c-10.506-1.754-20.694-5.877-29.465-11.921
						c-0.173-0.119-0.217-0.356-0.097-0.529c0.119-0.173,0.355-0.217,0.529-0.098c8.679,5.982,18.762,10.061,29.158,11.798
						c0.208,0.034,0.347,0.23,0.313,0.438C54.62,372.862,54.458,372.994,54.276,372.994z"/>
				</g>
			</g>
			<g>
				<g>
					<path style="fill:#00B397;" d="M418.872,414.638c-0.635-7.82-3.205-15.33-5.397-22.863s-4.035-15.367-3.164-23.164
						c0.165-1.474,0.442-2.98,1.233-4.234c0.791-1.254,2.201-2.213,3.678-2.088c2.082,0.176,3.406,2.259,4.292,4.151
						c1.826,3.898,3.224,7.996,4.163,12.197c-0.83-6.853-1.459-13.094-0.247-19.89c1.211-6.796,4.11-13.44,9.067-18.244
						c1.444-1.4,3.333-2.708,5.307-2.329c2.56,0.493,3.773,3.55,3.685,6.155c-0.088,2.606-1.005,5.175-0.731,7.768
						c1.879-10.774,10.143-20.051,20.468-23.658c1.881-0.657,3.862-1.135,5.85-1.003c1.988,0.132,3.994,0.937,5.254,2.48
						c1.206,1.478,1.616,3.499,1.399,5.395c-0.217,1.896-1.009,3.684-1.988,5.322c-3.843,6.433-10.611,10.977-13.387,17.937
						c2.185-1.514,4.119-2.716,6.549-3.792c2.431-1.076,5.133-1.69,7.762-1.29c1.866,0.284,3.823,1.258,4.445,3.041
						c0.631,1.806-0.304,3.769-1.384,5.348c-6.32,9.243-17.791,13.537-25.402,21.749c3.937-3.76,8.795-5.928,14.174-6.771
						c0.985-0.154,2-0.253,2.971-0.025c0.97,0.228,1.898,0.833,2.29,1.749c0.648,1.516-0.329,3.216-1.39,4.479
						c-1.73,2.059-3.783,3.818-5.729,5.674c-8.866,8.457-15.612,19.121-19.456,30.755"/>
				</g>
				<g>
					<path style="fill:#FFFFFF;" d="M430.895,415.759c-0.004,0-0.007,0-0.011,0c-0.21-0.006-0.376-0.181-0.369-0.391
						c0.526-18.22,4.6-36.707,11.779-53.462c6.275-14.647,13.861-24.695,23.19-30.721c0.175-0.111,0.412-0.065,0.525,0.113
						c0.114,0.176,0.063,0.411-0.113,0.525c-9.197,5.94-16.689,15.879-22.903,30.381c-7.142,16.669-11.194,35.06-11.719,53.185
						C431.269,415.596,431.1,415.759,430.895,415.759z"/>
				</g>
				<g>
					<path style="fill:#FFFFFF;" d="M431.347,407.769c-0.124,0-0.245-0.061-0.318-0.172c-5.524-8.426-9.985-17.451-12.901-26.102
						c-0.067-0.198,0.04-0.414,0.239-0.482c0.198-0.069,0.414,0.04,0.482,0.239c2.896,8.589,7.328,17.554,12.817,25.926
						c0.115,0.176,0.065,0.412-0.109,0.527C431.491,407.749,431.419,407.769,431.347,407.769z"/>
				</g>
				<g>
					<path style="fill:#FFFFFF;" d="M432.305,399.622c-0.161,0-0.311-0.103-0.362-0.266c-0.064-0.2,0.047-0.414,0.247-0.478
						c10.182-3.239,19.824-8.657,27.886-15.669c0.158-0.139,0.398-0.121,0.537,0.037c0.138,0.159,0.121,0.399-0.037,0.537
						c-8.14,7.079-17.876,12.549-28.155,15.819C432.382,399.617,432.343,399.622,432.305,399.622z"/>
				</g>
				<g>
					<path style="fill:#FFFFFF;" d="M436.943,378.193c-0.164,0-0.315-0.107-0.364-0.273c-2.676-9.047-3.946-19.506-3.399-27.979
						c0.014-0.209,0.186-0.361,0.404-0.355c0.21,0.014,0.369,0.194,0.355,0.404c-0.542,8.388,0.718,18.749,3.368,27.715
						c0.06,0.201-0.055,0.412-0.257,0.472C437.016,378.187,436.978,378.193,436.943,378.193z"/>
				</g>
				<g>
					<path style="fill:#FFFFFF;" d="M438.672,372.994c-0.183,0-0.344-0.132-0.375-0.318c-0.035-0.207,0.105-0.403,0.313-0.438
						c10.397-1.736,20.48-5.815,29.159-11.798c0.17-0.117,0.409-0.077,0.529,0.098c0.119,0.173,0.075,0.41-0.098,0.529
						c-8.771,6.044-18.96,10.167-29.466,11.921C438.713,372.992,438.692,372.994,438.672,372.994z"/>
				</g>
			</g>
			<g>
				<g>
					<circle style="fill:#281F6E;" cx="380.346" cy="184.138" r="29.4"/>
				</g>
				<g>
					<circle style="fill:#FFFFFF;" cx="380.346" cy="184.138" r="26.482"/>
				</g>
				<g>
					<path style="fill:#281F6E;" d="M380.346,185.307h-13.044c-0.646,0-1.169-0.523-1.169-1.168c0-0.646,0.523-1.168,1.169-1.168
						h11.875v-21.225c0-0.646,0.523-1.169,1.169-1.169c0.645,0,1.169,0.523,1.169,1.169v22.393
						C381.515,184.784,380.991,185.307,380.346,185.307z"/>
				</g>
				<g>
					<path style="fill:#281F6E;" d="M384.078,184.138c0,2.061-1.671,3.732-3.732,3.732c-2.061,0-3.732-1.671-3.732-3.732
						c0-2.061,1.671-3.732,3.732-3.732C382.407,180.406,384.078,182.077,384.078,184.138z"/>
				</g>
			</g>
			<g>
				<g>
					<path style="fill:#FFFFFF;" d="M206.937,197.909h-50.755c-2.556,0-4.628,2.072-4.628,4.628v23.564l-6.872,10.043
						c-0.783,1.144,0.291,2.642,1.626,2.267l15.749-4.423l-0.085-0.076h44.965c2.556,0,4.628-2.072,4.628-4.628v-26.748
						C211.565,199.981,209.493,197.909,206.937,197.909z"/>
				</g>
				<g>
					<g>
						<path style="fill:#802AD7;" d="M204.49,207.116h-45.412c-1.237,0-2.24-1.003-2.24-2.24l0,0c0-1.237,1.003-2.24,2.24-2.24
							h45.412c1.237,0,2.24,1.003,2.24,2.24l0,0C206.729,206.113,205.727,207.116,204.49,207.116z"/>
					</g>
					<g>
						<path style="fill:#802AD7;" d="M179.544,227.418h-20.466c-1.237,0-2.24-1.003-2.24-2.24l0,0c0-1.237,1.003-2.24,2.24-2.24
							h20.466c1.237,0,2.24,1.003,2.24,2.24l0,0C181.783,226.415,180.781,227.418,179.544,227.418z"/>
					</g>
					<g>
						<path style="fill:#802AD7;" d="M195.324,217.796h-36.246c-1.237,0-2.24-1.003-2.24-2.24l0,0c0-1.237,1.003-2.24,2.24-2.24
							h36.246c1.237,0,2.24,1.003,2.24,2.24l0,0C197.564,216.793,196.561,217.796,195.324,217.796z"/>
					</g>
				</g>
			</g>
			<g>
				<path style="fill:#FF9E37;" d="M261.704,188.154c12.687-2.208,23.873-9.81,33.008-18.886c3.279-3.258,6.478-6.98,7.295-11.53
					c0.921-5.132-1.624-10.633-5.969-13.515c-4.345-2.882-10.212-3.144-14.941-0.948c-5.637,2.618-9.279,8.107-13.825,12.347
					c-9.24,8.619-23.046,12.029-35.236,8.703c-3.854-1.051-10.227-3.843-13.377,0.119c-2.683,3.375,0.112,7.36,2.496,9.893
					c6.488,6.896,15.235,11.641,24.497,13.525C250.926,188.934,256.396,189.077,261.704,188.154z"/>
			</g>
			<g>
				<path style="fill:#FFFFFF;" d="M80.044,123.114c3.754-2.968,7.9-5.637,12.573-6.669c4.673-1.031,9.974-0.182,13.418,3.14
					c3.445,3.322,4.318,9.344,1.187,12.962c-2.493,2.88-6.576,3.612-10.262,4.572c-11.099,2.892-21.201,9.477-28.325,18.465
					c-1.31,1.653-2.551,3.412-4.262,4.646c-4.956,3.574-6.397-0.134-5.543-4.579c0.836-4.347,2.357-8.542,4.375-12.477
					C67.217,135.349,73.166,128.552,80.044,123.114z"/>
			</g>
		</g>
		<g>
			<path style="fill:#334FB3;" d="M222.245,312.743l-46.229,23.513c-4.444,2.269-9.778,1.913-13.885-0.909l-10.829-7.435
				l-2.719-1.866l-6.31-4.331l-10.369-50.055c0,0,6.703,2.353,13.782,11.4c6.797,8.681,26.27,30.198,26.27,30.198l47.43-14.147
				L222.245,312.743z"/>
			<path style="fill:#33090A;" d="M130.234,277.311c5.449-4.445,9.265-10.849,10.579-17.757c1.315-6.908,0.173-14.405-3.262-20.54
				c1.303-5.291,1.563-10.905-0.605-15.704c-1.709-3.784-1.604-8.34,0.277-12.042c1.659-3.264,4.532-5.751,6.441-8.876
				c2.308-3.777,3.093-8.456,2.145-12.78c-0.948-4.324-3.619-8.245-7.295-10.71c-4.908-3.291-11.094-3.865-16.992-4.242
				c-8.21-0.526-16.585-0.846-24.535,1.27c-7.95,2.116-15.56,6.639-18.995,14.114c-4.382,1.07-8.092,4.197-10.465,8.033
				c-2.373,3.836-3.507,8.333-3.924,12.824c-1.02,10.969,2.209,21.926,8.858,30.71c-3.194,7.326-4.08,16.03-1.778,23.684
				c2.303,7.653,7.394,14.434,14.1,18.78"/>
			<path style="fill:#FA5855;" d="M95.8,289.71c0.135,0.014,0.28,0.03,0.448,0.048c1.716,0.187,3.429,0.387,5.148,0.55
				c5.702,0.541,11.431,0.851,17.16,0.876c4.541,0.019,9.07-0.16,13.595-0.343c-0.894-6.36-1.669-12.738-2.318-19.125
				c-4.535-1.598-9.748-2.574-14.71-3.382l-2.825,0.306v-2.35l-19.984,2.133c-3.282,0.38-6.5,1.149-9.455,2.241
				c3.912,6.366,7.894,12.686,12.033,18.902C95.194,289.613,95.497,289.661,95.8,289.71z"/>
			<path style="fill:#FA5855;" d="M83.62,350.142c1.262,4.602,2.183,8.811,2.501,12.384h51.198c0.623-2.221,1.249-4.443,1.898-6.662
				c-0.269-1.898-0.488-3.805-0.645-5.723H83.62z"/>
			<rect x="97.427" y="249.043" style="fill:#FA5855;" width="20.669" height="27.075"/>
			<path style="fill:#BB2B2B;" d="M118.096,256.001c-5.384,2.364-10.333,2.064-10.333,2.064s-4.939,0.3-10.333-2.064v-6.385h20.757
				L118.096,256.001z"/>
			<path style="fill:#FA5855;" d="M108.811,190.891c-28.188,0.6-23.01,14.533-21.781,39.453c1.274,25.847,21.781,24.49,21.781,24.49
				s20.507,1.357,21.781-24.49C131.821,205.424,136.999,191.491,108.811,190.891z"/>
			<path style="fill:#FA5855;" d="M88.919,218.716c-1.328-1.378-3.766-1.672-5.648-0.925c-1.883,0.747-3.208,2.369-3.786,4.12
				c-0.578,1.75-0.482,3.62-0.121,5.407c0.286,1.413,0.743,2.817,1.587,4.039c0.843,1.222,2.104,2.255,3.644,2.701
				c1.54,0.446,3.365,0.237,4.601-0.707C89.263,228.422,88.851,223.645,88.919,218.716z"/>
			<path style="fill:#120654;" d="M136.798,361.945h-21.047h-8.663H86.041c-11.38,23.112-18.409,48.624-20.553,74.601h41.6h8.663
				h41.6C155.206,410.57,148.177,385.058,136.798,361.945z"/>
			<g>
				<path style="fill:none;stroke:#FFFFFF;stroke-width:0.7031;stroke-miterlimit:10;" d="M84.471,368.226
					c17.881,0.583,35.797,0.462,53.664-0.362"/>
				<path style="fill:none;stroke:#FFFFFF;stroke-width:0.7031;stroke-miterlimit:10;" d="M111.61,395.908
					c3.791-8.527,5.276-18.066,4.256-27.342"/>
				<path style="fill:none;stroke:#FFFFFF;stroke-width:0.7031;stroke-miterlimit:10;" d="M113.506,391.201
					c-1.285,0.198-2.59-0.577-3.276-1.682c-0.686-1.105-0.833-2.473-0.697-3.766c0.136-1.293,0.533-2.542,0.866-3.8
					c1.147-4.336,1.541-8.87,1.159-13.338"/>
				<path style="fill:none;stroke:#FFFFFF;stroke-width:0.7031;stroke-miterlimit:10;" d="M80.085,381.53
					c3.546,0.338,7.214-0.926,9.8-3.375c2.586-2.45,4.046-6.044,3.901-9.603"/>
				<path style="fill:none;stroke:#FFFFFF;stroke-width:0.7031;stroke-miterlimit:10;" d="M143.572,381.53
					c-3.546,0.338-7.214-0.926-9.8-3.375c-2.586-2.45-4.046-6.044-3.901-9.603"/>
			</g>
			<rect x="27.273" y="401.355" style="fill:#FFFFFF;" width="438.189" height="80.577"/>
			<path style="fill:#FDBED1;" d="M162.002,401.355c0,10.478,63.061,18.972,140.85,18.972c77.789,0,140.849-8.494,140.849-18.972
				H162.002z"/>
			<g>
				<g>
					<path style="fill:#FF6D9A;" d="M201.325,262.033l19.768,135.038c0.586,4.003,4.286,7.251,8.276,7.251H421.86
						c3.983,0,6.739-3.248,6.153-7.251l-19.768-135.038c-0.587-4.011-4.293-7.251-8.276-7.251H207.478
						C203.488,254.782,200.738,258.023,201.325,262.033z"/>
					<path style="fill:#281F6E;" d="M197.643,262.033l19.768,135.038c0.586,4.003,4.286,7.251,8.276,7.251h192.491
						c3.983,0,6.739-3.248,6.153-7.251l-19.768-135.038c-0.587-4.011-4.293-7.251-8.276-7.251H203.796
						C199.805,254.782,197.055,258.023,197.643,262.033z"/>
				</g>
				
					<path style="fill:none;stroke:#FF6D9A;stroke-width:4.575;stroke-linecap:round;stroke-linejoin:round;stroke-miterlimit:10;" d="
					M384.607,248.31c4.33,0,7.323,3.51,6.686,7.84c-0.637,4.33-4.664,7.84-8.993,7.84c-2.588,0-4.699-1.254-5.842-3.188"/>
				
					<path style="fill:none;stroke:#FF6D9A;stroke-width:4.575;stroke-linecap:round;stroke-linejoin:round;stroke-miterlimit:10;" d="
					M352.391,248.31c4.33,0,7.324,3.51,6.686,7.84c-0.637,4.33-4.664,7.84-8.993,7.84c-2.588,0-4.699-1.254-5.842-3.188"/>
				
					<path style="fill:none;stroke:#FF6D9A;stroke-width:4.575;stroke-linecap:round;stroke-linejoin:round;stroke-miterlimit:10;" d="
					M320.176,248.31c4.33,0,7.323,3.51,6.686,7.84c-0.637,4.33-4.664,7.84-8.993,7.84c-2.588,0-4.699-1.254-5.842-3.188"/>
				
					<path style="fill:none;stroke:#FF6D9A;stroke-width:4.575;stroke-linecap:round;stroke-linejoin:round;stroke-miterlimit:10;" d="
					M287.961,248.31c4.33,0,7.324,3.51,6.686,7.84c-0.637,4.33-4.664,7.84-8.993,7.84c-2.588,0-4.699-1.254-5.842-3.188"/>
				
					<path style="fill:none;stroke:#FF6D9A;stroke-width:4.575;stroke-linecap:round;stroke-linejoin:round;stroke-miterlimit:10;" d="
					M255.746,248.31c4.33,0,7.323,3.51,6.686,7.84c-0.637,4.33-4.664,7.84-8.993,7.84c-2.588,0-4.699-1.254-5.842-3.188"/>
				<path style="fill:#FF6D9A;" d="M405.678,260.664c-0.012-0.014-0.023-0.029-0.035-0.042c-0.012-0.014-0.023-0.028-0.035-0.042
					c-0.012-0.014-0.023-0.029-0.035-0.043c-0.012-0.014-0.023-0.028-0.035-0.042c-0.012-0.014-0.023-0.028-0.035-0.042
					c-0.012-0.014-0.023-0.029-0.035-0.043c-0.012-0.014-0.023-0.028-0.035-0.042c-0.012-0.014-0.023-0.029-0.035-0.043
					c-0.012-0.014-0.023-0.028-0.035-0.042c-0.012-0.014-0.023-0.028-0.035-0.042c-0.012-0.014-0.023-0.029-0.035-0.043
					c-0.012-0.014-0.023-0.028-0.035-0.042c-0.012-0.014-0.023-0.028-0.035-0.042c-0.012-0.014-0.023-0.028-0.035-0.042
					c-0.012-0.014-0.023-0.028-0.035-0.042c-0.012-0.014-0.023-0.029-0.035-0.042c-0.012-0.014-0.023-0.028-0.035-0.042
					c-0.012-0.014-0.023-0.029-0.036-0.043c-0.012-0.014-0.023-0.028-0.035-0.042c-0.012-0.014-0.023-0.029-0.035-0.042
					c-0.012-0.014-0.023-0.028-0.035-0.042c-0.012-0.014-0.023-0.028-0.035-0.042c-0.012-0.014-0.023-0.029-0.035-0.042
					c-0.012-0.014-0.023-0.028-0.035-0.042c-0.012-0.014-0.023-0.028-0.035-0.042c-0.012-0.014-0.023-0.028-0.035-0.042
					c-0.012-0.014-0.023-0.028-0.035-0.042c-0.012-0.014-0.023-0.029-0.035-0.043c-0.012-0.014-0.023-0.028-0.035-0.042
					c-0.012-0.014-0.023-0.029-0.035-0.043c-0.012-0.014-0.023-0.028-0.035-0.042c-0.012-0.014-0.023-0.028-0.035-0.042
					c-0.012-0.014-0.023-0.029-0.035-0.043c-0.012-0.014-0.023-0.028-0.035-0.042c-0.012-0.014-0.023-0.029-0.035-0.043
					c-0.012-0.014-0.023-0.028-0.035-0.042c-0.012-0.014-0.023-0.029-0.035-0.043c-0.012-0.014-0.023-0.028-0.035-0.042
					c-0.012-0.014-0.023-0.028-0.035-0.042c-0.012-0.014-0.023-0.029-0.035-0.043c-0.012-0.014-0.023-0.028-0.035-0.042
					c-0.012-0.014-0.023-0.028-0.035-0.042c-0.012-0.014-0.023-0.029-0.036-0.043c-0.012-0.014-0.023-0.028-0.035-0.042
					c-0.012-0.014-0.023-0.029-0.035-0.043c-0.012-0.014-0.023-0.028-0.035-0.042c-0.012-0.014-0.023-0.028-0.035-0.042
					c-0.012-0.014-0.023-0.029-0.035-0.043c-0.012-0.014-0.023-0.028-0.035-0.042c-0.012-0.014-0.023-0.029-0.036-0.043
					c-0.012-0.014-0.023-0.028-0.035-0.042c-0.012-0.014-0.023-0.028-0.035-0.042c-0.012-0.014-0.023-0.029-0.035-0.043
					c-0.012-0.014-0.023-0.028-0.035-0.042c-0.012-0.014-0.023-0.029-0.035-0.043c-0.012-0.014-0.023-0.028-0.035-0.042
					c-0.012-0.014-0.023-0.028-0.035-0.042c-0.012-0.014-0.023-0.029-0.035-0.043c-0.012-0.014-0.023-0.028-0.035-0.042
					c-0.012-0.014-0.023-0.029-0.035-0.043c-0.012-0.014-0.023-0.028-0.035-0.042c-0.012-0.014-0.023-0.029-0.035-0.043
					c-0.012-0.014-0.023-0.028-0.035-0.042c-0.012-0.014-0.023-0.028-0.035-0.042c-0.012-0.014-0.023-0.029-0.035-0.042
					c-0.012-0.014-0.023-0.028-0.035-0.042c-0.012-0.014-0.023-0.028-0.035-0.042c-0.012-0.014-0.023-0.029-0.036-0.043
					c-0.012-0.014-0.023-0.028-0.035-0.042c-0.012-0.014-0.023-0.029-0.035-0.043c-0.012-0.014-0.023-0.028-0.035-0.042
					c-0.012-0.014-0.023-0.028-0.035-0.042c-0.012-0.014-0.023-0.029-0.035-0.043c-0.012-0.014-0.023-0.028-0.035-0.042
					c-0.012-0.014-0.023-0.029-0.036-0.043c-0.012-0.014-0.023-0.028-0.035-0.042c-0.012-0.014-0.023-0.029-0.035-0.043
					c-0.012-0.014-0.023-0.028-0.035-0.042c-0.012-0.014-0.023-0.028-0.035-0.042c-0.012-0.014-0.023-0.029-0.035-0.043
					c-0.012-0.014-0.023-0.028-0.035-0.042c-0.012-0.014-0.023-0.028-0.035-0.042c-0.012-0.014-0.023-0.028-0.035-0.042
					c-0.012-0.014-0.023-0.028-0.035-0.042c-0.012-0.014-0.023-0.029-0.035-0.042c-0.012-0.014-0.023-0.028-0.035-0.042
					c-0.012-0.014-0.023-0.029-0.035-0.043c-0.012-0.014-0.023-0.028-0.035-0.042c-0.012-0.014-0.023-0.028-0.035-0.042
					c-0.012-0.014-0.023-0.029-0.035-0.043c-1.118-1.327-2.82-2.149-4.838-2.149H204.204c-4.003,0-7.728,3.241-8.318,7.251
					l-19.869,135.038c-0.296,2.01,0.256,3.828,1.385,5.142c0.012,0.014,0.023,0.028,0.035,0.042
					c0.012,0.014,0.023,0.028,0.035,0.042c0.012,0.014,0.023,0.029,0.036,0.043c0.012,0.014,0.023,0.028,0.035,0.042
					c0.012,0.014,0.023,0.029,0.035,0.043c0.012,0.014,0.023,0.028,0.035,0.042c0.012,0.014,0.023,0.028,0.035,0.042
					c0.012,0.014,0.023,0.029,0.035,0.043c0.012,0.014,0.023,0.028,0.035,0.042c0.012,0.014,0.023,0.028,0.035,0.042
					c0.012,0.014,0.023,0.028,0.035,0.042c0.012,0.014,0.023,0.028,0.035,0.042c0.012,0.014,0.023,0.029,0.035,0.042
					c0.012,0.014,0.023,0.028,0.035,0.042c0.012,0.014,0.023,0.029,0.036,0.043c0.012,0.014,0.023,0.028,0.035,0.042
					c0.012,0.014,0.023,0.029,0.035,0.042c0.012,0.014,0.023,0.028,0.035,0.042c0.012,0.014,0.023,0.028,0.035,0.042
					c0.012,0.014,0.023,0.029,0.035,0.043c0.012,0.014,0.023,0.028,0.035,0.042c0.012,0.014,0.023,0.029,0.035,0.043
					c0.012,0.014,0.023,0.028,0.035,0.042c0.012,0.014,0.023,0.028,0.035,0.042c0.012,0.014,0.023,0.029,0.035,0.043
					c0.012,0.014,0.023,0.028,0.035,0.042c0.012,0.014,0.023,0.029,0.035,0.043c0.012,0.014,0.023,0.028,0.035,0.042
					c0.012,0.014,0.023,0.028,0.035,0.042c0.012,0.014,0.023,0.029,0.035,0.043c0.012,0.014,0.023,0.028,0.035,0.042
					c0.012,0.014,0.023,0.028,0.035,0.042c0.012,0.014,0.023,0.028,0.035,0.042c0.012,0.014,0.023,0.029,0.035,0.043
					c0.012,0.014,0.023,0.028,0.035,0.042c0.012,0.014,0.023,0.028,0.035,0.042c0.012,0.014,0.023,0.029,0.035,0.042
					c0.012,0.014,0.023,0.028,0.035,0.042c0.012,0.014,0.023,0.028,0.035,0.042c0.012,0.014,0.023,0.029,0.035,0.043
					c0.012,0.014,0.023,0.028,0.035,0.042c0.012,0.014,0.023,0.029,0.035,0.043c0.012,0.014,0.023,0.028,0.035,0.042
					c0.012,0.014,0.023,0.028,0.035,0.042c0.012,0.014,0.023,0.029,0.035,0.043c0.012,0.014,0.023,0.028,0.035,0.042
					c0.012,0.014,0.023,0.029,0.036,0.043c0.012,0.014,0.023,0.028,0.035,0.042c0.012,0.014,0.023,0.028,0.035,0.042
					c0.012,0.014,0.023,0.029,0.035,0.043c0.012,0.014,0.023,0.028,0.035,0.042c0.012,0.014,0.023,0.029,0.035,0.043
					c0.012,0.014,0.023,0.028,0.035,0.042c0.012,0.014,0.023,0.028,0.035,0.042c0.012,0.014,0.023,0.029,0.035,0.043
					c0.012,0.014,0.023,0.028,0.035,0.042c0.012,0.014,0.023,0.029,0.035,0.042c0.012,0.014,0.023,0.028,0.035,0.042
					c0.012,0.014,0.023,0.029,0.035,0.042c0.012,0.014,0.023,0.028,0.035,0.042c0.012,0.014,0.023,0.028,0.035,0.042
					c0.012,0.014,0.023,0.029,0.035,0.043c0.012,0.014,0.023,0.028,0.035,0.042c0.012,0.014,0.023,0.028,0.035,0.042
					c0.012,0.014,0.023,0.029,0.035,0.043c0.012,0.014,0.023,0.028,0.035,0.042c0.012,0.014,0.023,0.028,0.035,0.042
					c0.012,0.014,0.023,0.028,0.035,0.042c0.012,0.014,0.023,0.028,0.035,0.042c0.012,0.014,0.023,0.029,0.035,0.043
					c0.012,0.014,0.023,0.028,0.035,0.042c0.012,0.014,0.023,0.029,0.035,0.043c0.012,0.014,0.023,0.028,0.035,0.042
					c0.012,0.014,0.023,0.029,0.035,0.043c0.012,0.014,0.023,0.028,0.035,0.042c0.012,0.014,0.023,0.028,0.035,0.042
					c0.012,0.014,0.023,0.028,0.035,0.042c0.012,0.014,0.023,0.028,0.035,0.042c0.012,0.014,0.023,0.028,0.035,0.042
					c0.012,0.014,0.023,0.028,0.035,0.042c0.012,0.014,0.023,0.028,0.035,0.042c0.012,0.014,0.023,0.029,0.035,0.043
					c0.012,0.014,0.023,0.028,0.035,0.042c0.012,0.014,0.023,0.029,0.036,0.043c0.012,0.014,0.023,0.028,0.035,0.042
					c0.012,0.014,0.023,0.028,0.035,0.042c0.012,0.014,0.023,0.029,0.035,0.043c0.012,0.014,0.023,0.028,0.035,0.042
					c0.012,0.014,0.023,0.029,0.035,0.043c0.012,0.014,0.023,0.028,0.035,0.042c1.119,1.328,2.82,2.152,4.835,2.152h193.476
					c4.011,0,7.729-3.248,8.318-7.251l19.869-135.038C407.356,263.795,406.806,261.977,405.678,260.664z"/>
				
					<path style="fill:none;stroke:#FF6D9A;stroke-width:4.575;stroke-linecap:round;stroke-linejoin:round;stroke-miterlimit:10;" d="
					M223.531,248.31c4.33,0,7.324,3.51,6.686,7.84c-0.637,4.33-4.664,7.84-8.993,7.84c-2.588,0-4.699-1.254-5.842-3.188"/>
				<path style="fill:#FFF0FF;" d="M403.864,261.961l-19.869,135.038c-0.589,4.003-4.308,7.251-8.318,7.251H182.201
					c-4.003,0-6.774-3.248-6.185-7.251l19.869-135.038c0.59-4.011,4.315-7.251,8.318-7.251H397.68
					C401.69,254.71,404.454,257.95,403.864,261.961z"/>
				<path style="fill:#802AD7;" d="M403.864,261.961l-4.427,30.085H191.459l4.426-30.085c0.59-4.011,4.315-7.251,8.318-7.251H397.68
					C401.69,254.71,404.454,257.95,403.864,261.961z"/>
				<g>
					<path style="fill:#FFF0FF;" d="M207.71,281.673c-0.602-0.164-1.078-0.383-1.429-0.657l1.014-1.713
						c0.332,0.242,0.729,0.438,1.193,0.586c0.463,0.149,0.929,0.223,1.399,0.223c0.892,0,1.37-0.223,1.436-0.669
						c0.035-0.235-0.067-0.409-0.304-0.522c-0.238-0.113-0.629-0.232-1.173-0.358c-0.598-0.133-1.094-0.275-1.486-0.428
						c-0.392-0.153-0.712-0.397-0.96-0.734c-0.248-0.336-0.33-0.79-0.245-1.361c0.074-0.5,0.277-0.952,0.61-1.355
						c0.333-0.403,0.789-0.722,1.367-0.956c0.578-0.235,1.262-0.352,2.052-0.352c0.54,0,1.063,0.061,1.569,0.182
						c0.506,0.121,0.942,0.299,1.306,0.534l-0.97,1.725c-0.72-0.422-1.448-0.634-2.183-0.634c-0.462,0-0.808,0.069-1.039,0.206
						c-0.232,0.137-0.363,0.315-0.395,0.534c-0.032,0.219,0.068,0.383,0.303,0.493c0.234,0.11,0.62,0.223,1.159,0.34
						c0.606,0.133,1.104,0.276,1.492,0.428c0.388,0.153,0.708,0.395,0.96,0.727c0.252,0.332,0.337,0.784,0.253,1.355
						c-0.072,0.493-0.275,0.939-0.607,1.338c-0.333,0.399-0.79,0.717-1.373,0.956c-0.583,0.239-1.265,0.358-2.048,0.358
						C208.944,281.919,208.311,281.837,207.71,281.673z"/>
					<path style="fill:#FFF0FF;" d="M241.265,281.755l0.617-4.353l-2.634,3.544h-1.032l-1.596-3.426l-0.623,4.235h-2.147
						l1.208-8.213h1.913l2.189,4.74l3.513-4.74h1.912l-1.185,8.213H241.265z"/>
					<path style="fill:#FFF0FF;" d="M267.241,275.384h-2.523l0.271-1.842h7.357l-0.271,1.842h-2.511l-0.937,6.371h-2.323
						L267.241,275.384z"/>
					<path style="fill:#FFF0FF;" d="M305.608,273.542l-3.872,8.213h-2.487l-0.837-4.998l-2.378,4.998h-2.487l-1.455-8.213h2.394
						l0.882,5.245l2.508-5.245h2.136l0.876,5.292l2.503-5.292H305.608z"/>
					<path style="fill:#FFF0FF;" d="M327.606,275.384h-2.523l0.271-1.842h7.357l-0.271,1.842h-2.511l-0.937,6.371h-2.323
						L327.606,275.384z"/>
					<path style="fill:#FFF0FF;" d="M355.15,275.337l-0.266,1.807h3.626l-0.264,1.795h-3.626l-0.414,2.816h-2.323l1.208-8.213h6.441
						l-0.264,1.795H355.15z"/>
					<path style="fill:#FFF0FF;" d="M379.889,281.673c-0.601-0.164-1.078-0.383-1.428-0.657l1.014-1.713
						c0.332,0.242,0.729,0.438,1.193,0.586c0.463,0.149,0.929,0.223,1.398,0.223c0.891,0,1.37-0.223,1.436-0.669
						c0.034-0.235-0.067-0.409-0.304-0.522c-0.237-0.113-0.628-0.232-1.173-0.358c-0.598-0.133-1.094-0.275-1.486-0.428
						c-0.392-0.153-0.712-0.397-0.96-0.734c-0.248-0.336-0.33-0.79-0.246-1.361c0.074-0.5,0.277-0.952,0.61-1.355
						c0.333-0.403,0.789-0.722,1.367-0.956c0.578-0.235,1.262-0.352,2.053-0.352c0.539,0,1.063,0.061,1.569,0.182
						c0.506,0.121,0.941,0.299,1.306,0.534l-0.969,1.725c-0.72-0.422-1.448-0.634-2.183-0.634c-0.462,0-0.808,0.069-1.039,0.206
						c-0.232,0.137-0.363,0.315-0.396,0.534c-0.032,0.219,0.069,0.383,0.303,0.493c0.234,0.11,0.62,0.223,1.158,0.34
						c0.607,0.133,1.104,0.276,1.492,0.428c0.389,0.153,0.709,0.395,0.961,0.727c0.252,0.332,0.337,0.784,0.253,1.355
						c-0.073,0.493-0.275,0.939-0.608,1.338c-0.333,0.399-0.79,0.717-1.372,0.956c-0.583,0.239-1.266,0.358-2.047,0.358
						C381.124,281.919,380.491,281.837,379.889,281.673z"/>
				</g>
				<path style="fill:#281F6E;" d="M219.494,260.741c-0.322,2.185-2.354,3.957-4.539,3.957s-3.696-1.771-3.375-3.957
					c0.322-2.185,2.354-3.957,4.539-3.957C218.305,256.784,219.816,258.556,219.494,260.741z"/>
				
					<path style="fill:none;stroke:#FF6D9A;stroke-width:4.575;stroke-linecap:round;stroke-linejoin:round;stroke-miterlimit:10;" d="
					M215.382,260.802c-0.769-1.301-1.101-2.91-0.844-4.652c0.637-4.33,4.664-7.84,8.993-7.84"/>
				<path style="fill:#281F6E;" d="M251.71,260.741c-0.322,2.185-2.354,3.957-4.539,3.957s-3.696-1.771-3.375-3.957
					c0.321-2.185,2.354-3.957,4.539-3.957C250.52,256.784,252.031,258.556,251.71,260.741z"/>
				
					<path style="fill:none;stroke:#FF6D9A;stroke-width:4.575;stroke-linecap:round;stroke-linejoin:round;stroke-miterlimit:10;" d="
					M247.597,260.802c-0.769-1.301-1.101-2.91-0.844-4.652c0.637-4.33,4.664-7.84,8.993-7.84"/>
				<path style="fill:#281F6E;" d="M283.925,260.741c-0.322,2.185-2.354,3.957-4.539,3.957c-2.185,0-3.696-1.771-3.375-3.957
					c0.322-2.185,2.354-3.957,4.539-3.957C282.735,256.784,284.246,258.556,283.925,260.741z"/>
				
					<path style="fill:none;stroke:#FF6D9A;stroke-width:4.575;stroke-linecap:round;stroke-linejoin:round;stroke-miterlimit:10;" d="
					M279.812,260.802c-0.769-1.301-1.101-2.91-0.844-4.652c0.637-4.33,4.664-7.84,8.993-7.84"/>
				<path style="fill:#281F6E;" d="M316.14,260.741c-0.322,2.185-2.354,3.957-4.539,3.957c-2.185,0-3.696-1.771-3.375-3.957
					c0.322-2.185,2.354-3.957,4.539-3.957C314.951,256.784,316.461,258.556,316.14,260.741z"/>
				
					<path style="fill:none;stroke:#FF6D9A;stroke-width:4.575;stroke-linecap:round;stroke-linejoin:round;stroke-miterlimit:10;" d="
					M312.027,260.802c-0.769-1.301-1.101-2.91-0.844-4.652c0.637-4.33,4.664-7.84,8.993-7.84"/>
				<path style="fill:#281F6E;" d="M348.355,260.741c-0.322,2.185-2.354,3.957-4.539,3.957c-2.185,0-3.696-1.771-3.375-3.957
					c0.321-2.185,2.354-3.957,4.539-3.957C347.166,256.784,348.676,258.556,348.355,260.741z"/>
				
					<path style="fill:none;stroke:#FF6D9A;stroke-width:4.575;stroke-linecap:round;stroke-linejoin:round;stroke-miterlimit:10;" d="
					M344.242,260.802c-0.769-1.301-1.101-2.91-0.844-4.652c0.637-4.33,4.664-7.84,8.993-7.84"/>
				<path style="fill:#281F6E;" d="M380.57,260.741c-0.322,2.185-2.354,3.957-4.539,3.957s-3.696-1.771-3.375-3.957
					s2.354-3.957,4.539-3.957S380.892,258.556,380.57,260.741z"/>
				
					<path style="fill:none;stroke:#FF6D9A;stroke-width:4.575;stroke-linecap:round;stroke-linejoin:round;stroke-miterlimit:10;" d="
					M376.457,260.802c-0.769-1.301-1.101-2.91-0.844-4.652c0.637-4.33,4.664-7.84,8.993-7.84"/>
				<g>
					<path style="fill:none;stroke:#FF6D9A;stroke-width:0.7625;stroke-miterlimit:10;" d="M262.26,317.09L262.26,317.09
						c-4.964,0-8.397-4.025-7.666-8.989v0c0.73-4.964,5.347-8.989,10.311-8.989l0,0c4.964,0,8.397,4.025,7.666,8.989v0
						C271.841,313.065,267.224,317.09,262.26,317.09z"/>
					<path style="fill:none;stroke:#FF6D9A;stroke-width:0.7625;stroke-miterlimit:10;" d="M292.443,317.09L292.443,317.09
						c-4.964,0-8.397-4.025-7.666-8.989v0c0.73-4.964,5.347-8.989,10.311-8.989l0,0c4.964,0,8.397,4.025,7.666,8.989v0
						C302.023,313.065,297.407,317.09,292.443,317.09z"/>
					<path style="fill:none;stroke:#FF6D9A;stroke-width:0.7625;stroke-miterlimit:10;" d="M322.625,317.09L322.625,317.09
						c-4.964,0-8.397-4.025-7.666-8.989v0c0.73-4.964,5.347-8.989,10.311-8.989l0,0c4.964,0,8.397,4.025,7.666,8.989v0
						C332.206,313.065,327.59,317.09,322.625,317.09z"/>
					<path style="fill:none;stroke:#FF6D9A;stroke-width:0.7625;stroke-miterlimit:10;" d="M350.111,317.09L350.111,317.09
						c-4.964,0-8.397-4.025-7.666-8.989v0c0.73-4.964,5.347-8.989,10.311-8.989l0,0c4.964,0,8.397,4.025,7.666,8.989v0
						C359.692,313.065,355.076,317.09,350.111,317.09z"/>
					<path style="fill:none;stroke:#FF6D9A;stroke-width:0.7625;stroke-miterlimit:10;" d="M376.702,317.09L376.702,317.09
						c-4.964,0-8.397-4.025-7.666-8.989v0c0.73-4.964,5.347-8.989,10.311-8.989l0,0c4.964,0,8.397,4.025,7.666,8.989v0
						C386.283,313.065,381.666,317.09,376.702,317.09z"/>
					<path style="fill:none;stroke:#FF6D9A;stroke-width:0.7625;stroke-miterlimit:10;" d="M199.385,343.631L199.385,343.631
						c-4.964,0-8.397-4.024-7.666-8.989l0,0c0.73-4.964,5.347-8.989,10.311-8.989h0c4.964,0,8.397,4.024,7.666,8.989l0,0
						C208.966,339.607,204.349,343.631,199.385,343.631z"/>
					<path style="fill:none;stroke:#FF6D9A;stroke-width:0.7625;stroke-miterlimit:10;" d="M229.521,343.631L229.521,343.631
						c-4.964,0-8.397-4.024-7.666-8.989l0,0c0.73-4.964,5.347-8.989,10.311-8.989l0,0c4.964,0,8.397,4.024,7.666,8.989l0,0
						C239.102,339.607,234.485,343.631,229.521,343.631z"/>
					<path style="fill:none;stroke:#FF6D9A;stroke-width:0.7625;stroke-miterlimit:10;" d="M258.355,343.631L258.355,343.631
						c-4.964,0-8.397-4.024-7.666-8.989l0,0c0.73-4.964,5.347-8.989,10.311-8.989l0,0c4.964,0,8.397,4.024,7.666,8.989l0,0
						C267.936,339.607,263.319,343.631,258.355,343.631z"/>
					<path style="fill:none;stroke:#FF6D9A;stroke-width:0.7625;stroke-miterlimit:10;" d="M288.537,343.631L288.537,343.631
						c-4.964,0-8.397-4.024-7.666-8.989l0,0c0.73-4.964,5.347-8.989,10.311-8.989l0,0c4.964,0,8.397,4.024,7.666,8.989l0,0
						C298.118,339.607,293.502,343.631,288.537,343.631z"/>
					<path style="fill:none;stroke:#FF6D9A;stroke-width:0.7625;stroke-miterlimit:10;" d="M318.72,343.631L318.72,343.631
						c-4.964,0-8.397-4.024-7.666-8.989l0,0c0.73-4.964,5.347-8.989,10.311-8.989l0,0c4.964,0,8.397,4.024,7.666,8.989l0,0
						C328.301,339.607,323.684,343.631,318.72,343.631z"/>
					<path style="fill:none;stroke:#FF6D9A;stroke-width:0.7625;stroke-miterlimit:10;" d="M346.206,343.631L346.206,343.631
						c-4.964,0-8.397-4.024-7.666-8.989l0,0c0.73-4.964,5.347-8.989,10.311-8.989l0,0c4.964,0,8.397,4.024,7.666,8.989l0,0
						C355.787,339.607,351.171,343.631,346.206,343.631z"/>
					<path style="fill:none;stroke:#FF6D9A;stroke-width:0.7625;stroke-miterlimit:10;" d="M372.797,343.631L372.797,343.631
						c-4.964,0-8.397-4.024-7.666-8.989l0,0c0.73-4.964,5.347-8.989,10.311-8.989l0,0c4.964,0,8.397,4.024,7.666,8.989l0,0
						C382.378,339.607,377.761,343.631,372.797,343.631z"/>
					<path style="fill:none;stroke:#FF6D9A;stroke-width:0.7625;stroke-miterlimit:10;" d="M195.48,370.172L195.48,370.172
						c-4.964,0-8.397-4.025-7.666-8.989v0c0.73-4.964,5.347-8.989,10.311-8.989l0,0c4.964,0,8.397,4.024,7.666,8.989v0
						C205.061,366.147,200.444,370.172,195.48,370.172z"/>
					<path style="fill:#FF6D9A;" d="M225.616,370.172L225.616,370.172c-4.964,0-8.397-4.025-7.666-8.989v0
						c0.73-4.964,5.347-8.989,10.311-8.989l0,0c4.964,0,8.397,4.024,7.666,8.989v0C235.197,366.147,230.58,370.172,225.616,370.172z
						"/>
					<path style="fill:none;stroke:#FF6D9A;stroke-width:0.7625;stroke-miterlimit:10;" d="M254.45,370.172L254.45,370.172
						c-4.964,0-8.397-4.025-7.666-8.989v0c0.73-4.964,5.347-8.989,10.311-8.989h0c4.964,0,8.397,4.024,7.666,8.989v0
						C264.03,366.147,259.414,370.172,254.45,370.172z"/>
					<path style="fill:none;stroke:#FF6D9A;stroke-width:0.7625;stroke-miterlimit:10;" d="M284.632,370.172L284.632,370.172
						c-4.964,0-8.397-4.025-7.666-8.989v0c0.73-4.964,5.347-8.989,10.311-8.989l0,0c4.964,0,8.397,4.024,7.666,8.989v0
						C294.213,366.147,289.597,370.172,284.632,370.172z"/>
					<path style="fill:none;stroke:#FF6D9A;stroke-width:0.7625;stroke-miterlimit:10;" d="M314.815,370.172L314.815,370.172
						c-4.964,0-8.397-4.025-7.666-8.989v0c0.73-4.964,5.347-8.989,10.311-8.989l0,0c4.964,0,8.397,4.024,7.666,8.989v0
						C324.396,366.147,319.779,370.172,314.815,370.172z"/>
					<path style="fill:none;stroke:#FF6D9A;stroke-width:0.7625;stroke-miterlimit:10;" d="M342.301,370.172L342.301,370.172
						c-4.964,0-8.397-4.025-7.666-8.989v0c0.73-4.964,5.347-8.989,10.311-8.989l0,0c4.964,0,8.397,4.024,7.666,8.989v0
						C351.882,366.147,347.266,370.172,342.301,370.172z"/>
					<path style="fill:none;stroke:#FF6D9A;stroke-width:0.7625;stroke-miterlimit:10;" d="M368.891,370.172L368.891,370.172
						c-4.964,0-8.397-4.025-7.666-8.989v0c0.73-4.964,5.347-8.989,10.311-8.989h0c4.964,0,8.397,4.024,7.666,8.989v0
						C378.472,366.147,373.856,370.172,368.891,370.172z"/>
					<path style="fill:none;stroke:#FF6D9A;stroke-width:0.7625;stroke-miterlimit:10;" d="M191.574,396.713L191.574,396.713
						c-4.964,0-8.397-4.024-7.666-8.989l0,0c0.73-4.964,5.347-8.989,10.311-8.989l0,0c4.964,0,8.397,4.024,7.666,8.989l0,0
						C201.156,392.688,196.539,396.713,191.574,396.713z"/>
					<path style="fill:none;stroke:#FF6D9A;stroke-width:0.7625;stroke-miterlimit:10;" d="M221.711,396.713L221.711,396.713
						c-4.964,0-8.397-4.024-7.666-8.989l0,0c0.73-4.964,5.347-8.989,10.311-8.989l0,0c4.964,0,8.397,4.024,7.666,8.989l0,0
						C231.292,392.688,226.675,396.713,221.711,396.713z"/>
					<path style="fill:none;stroke:#FF6D9A;stroke-width:0.7625;stroke-miterlimit:10;" d="M250.544,396.713L250.544,396.713
						c-4.964,0-8.397-4.024-7.666-8.989l0,0c0.73-4.964,5.347-8.989,10.311-8.989l0,0c4.964,0,8.397,4.024,7.666,8.989l0,0
						C260.125,392.688,255.509,396.713,250.544,396.713z"/>
					<path style="fill:none;stroke:#FF6D9A;stroke-width:0.7625;stroke-miterlimit:10;" d="M280.727,396.713L280.727,396.713
						c-4.964,0-8.397-4.024-7.666-8.989l0,0c0.73-4.964,5.347-8.989,10.311-8.989l0,0c4.964,0,8.397,4.024,7.666,8.989l0,0
						C290.308,392.688,285.691,396.713,280.727,396.713z"/>
					<path style="fill:none;stroke:#FF6D9A;stroke-width:0.7625;stroke-miterlimit:10;" d="M310.91,396.713L310.91,396.713
						c-4.964,0-8.397-4.024-7.666-8.989h0c0.73-4.964,5.347-8.989,10.311-8.989l0,0c4.964,0,8.397,4.024,7.666,8.989l0,0
						C320.491,392.688,315.874,396.713,310.91,396.713z"/>
					<path style="fill:none;stroke:#FF6D9A;stroke-width:0.7625;stroke-miterlimit:10;" d="M338.396,396.713L338.396,396.713
						c-4.964,0-8.397-4.024-7.666-8.989l0,0c0.73-4.964,5.347-8.989,10.311-8.989l0,0c4.964,0,8.397,4.024,7.666,8.989l0,0
						C347.977,392.688,343.36,396.713,338.396,396.713z"/>
				</g>
			</g>
			<g>
				<g>
					<path style="fill:#33090A;" d="M133.317,203.83c-11.977,9.354-28.186,12.729-42.767,8.907
						c0.445,8.581-1.29,17.313-4.722,25.152c-1.046-1.387-2.232-2.194-3.278-3.581c1.39-5.834,1.952-12.024,2.232-18.024
						c0.182-3.883-0.909-8.084-0.69-11.965c0.218-3.881,1.31-7.906,4.02-10.622c2.138-2.144,5.054-3.255,7.944-4.038
						c7.539-2.044,15.496-2.242,23.208-1.061c3.278,0.502,6.666,1.321,9.187,3.53C131.786,195.046,133.333,199.331,133.317,203.83z"
						/>
					<path style="fill:#33090A;" d="M126.785,203.484c1.299,3.693,4.92,6.394,8.744,6.522c0.466-2.358-0.476-4.849-2.333-6.318
						C131.34,202.219,128.888,202.422,126.785,203.484z"/>
				</g>
			</g>
			<path style="fill:none;stroke:#33090A;stroke-width:0.9008;stroke-linecap:round;stroke-miterlimit:10;" d="M112.645,224.538
				c0.817,2.234,1.656,4.503,1.798,6.877c0.055,0.925-0.017,1.917-0.565,2.664c-0.673,0.918-2.042,1.239-3.052,0.716"/>
			<g>
				<circle style="fill:#33090A;" cx="121.138" cy="223.885" r="1.762"/>
				<circle style="fill:#33090A;" cx="103.921" cy="223.885" r="1.762"/>
				<path style="fill:none;stroke:#33090A;stroke-width:1.8016;stroke-linecap:round;stroke-miterlimit:10;" d="M98.519,219.552
					c2.938-1.387,6.356-1.731,9.511-0.957"/>
				<path style="fill:none;stroke:#33090A;stroke-width:1.8016;stroke-linecap:round;stroke-miterlimit:10;" d="M126.441,219.552
					c-2.938-1.387-6.356-1.731-9.511-0.957"/>
			</g>
			<path style="fill:#FFFFFF;" d="M119.41,241.274h-15.579c0.173,2.513,1.377,4.628,3.562,5.883
				c2.185,1.254,4.997,1.341,7.255,0.223C116.906,246.262,119.083,243.772,119.41,241.274z"/>
			<g>
				<circle style="fill:none;stroke:#FFFFFF;stroke-width:0.8236;stroke-miterlimit:10;" cx="102.926" cy="224.538" r="6.995"/>
				<circle style="fill:none;stroke:#FFFFFF;stroke-width:0.8236;stroke-miterlimit:10;" cx="121.795" cy="224.538" r="6.995"/>
				<path style="fill:none;stroke:#FFFFFF;stroke-width:0.8236;stroke-miterlimit:10;" d="M109.842,223.504c0,0,2.632-2.207,5.035,0
					"/>
				
					<line style="fill:none;stroke:#FFFFFF;stroke-width:0.8233;stroke-linecap:round;stroke-miterlimit:10;" x1="95.932" y1="223.504" x2="83.76" y2="217.544"/>
				
					<line style="fill:none;stroke:#FFFFFF;stroke-width:0.8233;stroke-linecap:round;stroke-miterlimit:10;" x1="128.79" y1="223.504" x2="131.099" y2="222.373"/>
			</g>
			<path style="fill:#FA7270;" d="M102.856,237.058c-0.718,1.465-3.241,1.702-5.636,0.529s-3.755-3.311-3.038-4.776
				c0.717-1.465,3.241-1.702,5.636-0.529C102.213,233.455,103.573,235.593,102.856,237.058z"/>
			<path style="fill:#FA7270;" d="M121.079,237.058c0.717,1.465,3.241,1.702,5.636,0.529s3.755-3.311,3.038-4.776
				c-0.717-1.465-3.241-1.702-5.636-0.529C121.722,233.455,120.362,235.593,121.079,237.058z"/>
			<path style="fill:#A8A8A8;" d="M116.821,288.986c4.973-5.802,6.893-12.367,7.87-18.992c-1.146-0.267-2.293-0.516-3.43-0.739
				c-0.244,5.534-2.582,11.185-5.832,15.67c-8.963-3.058-15.888-9.045-20.265-17.105c-1.262,0.196-2.556,0.433-3.856,0.691
				C96.827,278.743,106.399,286.381,116.821,288.986z"/>
			<path style="fill:#FFFFFF;" d="M139.658,352.694c-0.562-4.585-0.91-9.194-0.82-13.878c0.063-3.277,0.107-6.521,0.094-9.755
				c-0.013-0.191-0.023-0.382-0.037-0.573c-0.165-2.292-0.372-4.581-0.592-6.869c-0.11-1.14-0.253-2.28-0.35-3.421
				c-1.523-9.242-3.463-18.374-5.774-27.454c-1.077-4.232-2.369-8.429-3.197-12.721c-0.103-0.534-0.19-1.071-0.272-1.608
				c-0.473-1.504-0.924-3.01-1.356-4.517c-0.074-0.114-0.143-0.231-0.217-0.345c-0.243-0.374-0.465-0.753-0.676-1.135
				c-0.588-0.154-1.179-0.288-1.77-0.425c-0.977,6.625-2.897,13.19-7.87,18.992c-10.422-2.605-19.994-10.243-25.512-20.476
				c-3.034,0.603-6.104,1.371-8.916,2.359c-4.017,1.413-7.846,3.638-10.524,6.949c-4.589,5.674-5.087,13.751-4.139,20.986
				c2.397,18.285,10.8,36.419,15.975,53.983C102.599,351.356,120.849,351.925,139.658,352.694z"/>
			<path style="fill:#A8A8A8;" d="M139.658,352.694c-18.809-0.769-37.059-1.339-55.953,0.095c0.317,1.076,0.625,2.15,0.915,3.221
				h55.273c0.003-0.008,0.005-0.018,0.008-0.026c-0.003-0.506-0.012-1.013-0.018-1.519
				C139.806,353.875,139.731,353.285,139.658,352.694z"/>
			<path style="fill:#334FB3;" d="M104.52,371.746c1.923-34.974-1.238-70.224-9.389-104.29c-8.498,1.232-17.999,2.926-23.324,9.663
				c-3.041,3.848-4.278,8.836-4.69,13.723c-1.169,13.859,3.614,27.431,7.783,40.7c3.818,12.149,7.172,25.069,5.073,37.508
				C87.613,372.03,96.182,372.541,104.52,371.746z"/>
			<path style="fill:#597EFF;" d="M79.972,369.05c-0.193,1.146-0.416,2.29-0.707,3.428c7.873,3.338,16.666,4.191,25.07,2.613
				c0.072-1.114,0.122-2.23,0.184-3.345C96.182,372.541,87.613,372.03,79.972,369.05z"/>
			<path style="fill:#152047;" d="M97.452,267.842l-0.148-8.143c-1.563,0.145-3.123,0.537-4.48,1.325
				c-1.358,0.788-2.503,1.995-3.045,3.469c-0.825,2.242-0.149,4.834,1.255,6.768c1.404,1.933,3.838,3.14,5.935,4.286
				C96.398,272.996,96.506,270.278,97.452,267.842z"/>
			<g>
				<path style="fill:#334FB3;" d="M147.226,368.854c-2.772-27.641,5.067-48.519,0.542-73.171c-1.182-6.437-2.758-13.2-7.305-17.908
					c-4.84-5.012-11.546-7.96-18.49-8.54c6.23,32.183,8.963,66.639,8.38,99.55C136.149,370.276,141.545,369.614,147.226,368.854z"/>
				<path style="fill:#597EFF;" d="M130.352,368.785c-0.025,1.432-0.048,2.866-0.086,4.291c6.369,0.727,11.573,0.221,17.44-0.093
					c-0.191-1.395-0.344-2.768-0.481-4.129C141.624,369.38,137.098,369.671,130.352,368.785z"/>
			</g>
			<g>
				<g>
					<path style="fill:#FA5855;" d="M202.988,354.47l-25.65-4.111c0.375,4.574,0.578,9.162,0.631,13.753l24.208,0.153
						c2.393,0.017,4.507-1.713,4.898-4.149C207.506,357.429,205.676,354.901,202.988,354.47z"/>
				</g>
				<path style="fill:#FA5855;" d="M230.628,359.84c-0.218-0.205-0.494-0.333-0.775-0.438c-0.695-0.261-1.404-0.474-2.137-0.594
					c-4.919-0.803-9.694-2.472-14.045-4.902c1.195-0.065,2.356-0.401,3.518-0.692c1.162-0.291,2.291-0.817,3.124-1.676
					c0.573-0.591,0.99-1.355,1.137-2.159c0.098-0.539-0.406-0.994-0.936-0.857c-6.096,1.579-11.827,2.706-17.703,6.16l-8.572-1.438
					l-1.335,10.974l11.23,0.354c1.804,1.624,3.761,3.172,6.068,3.923c2.307,0.752,5.044,0.578,6.901-0.985
					c0.188-0.158,0.29-0.559,0.236-0.799c0.695-0.104,1.348-0.493,1.708-1.097c0.36-0.604,0.434-1.37,0.196-2.032
					c0.578-0.421,0.916-1.035,0.965-1.748c0.049-0.713-0.231-1.442-0.746-1.938c3.067,1.366,6.528,1.781,9.883,1.679
					c0.33-0.01,0.668-0.027,0.975-0.151c0.307-0.124,0.581-0.375,0.644-0.7C231.027,360.401,230.868,360.065,230.628,359.84z"/>
			</g>
			<path style="fill:#152047;" d="M124.47,262.9c-0.776-0.852-1.825-1.421-2.925-1.766c-1.1-0.344-2.215-0.495-3.449-0.495v8.197
				c1.443,0.999,2.643,2.298,3.457,3.853c0.813,1.555,1.37,3.229,1.924,4.894c0.659-0.622,1.046-1.417,1.381-2.258
				c0.877-2.201,1.327-4.571,1.316-6.94C126.165,266.425,125.788,264.349,124.47,262.9z"/>
			<path style="fill:#334FB3;" d="M91.384,275.546l43.565,63.861l57.84,12.5l-1.607,13.321l-64.526-4.161
				c-2.562-0.166-4.949-1.358-6.621-3.306l-49.718-57.912l7.189-25.925L91.384,275.546z"/>
			<path style="fill:#152047;" d="M117.118,354.364l2.916,3.396c1.672,1.948,4.059,3.14,6.621,3.306l4.889,0.317
				C128.449,356.901,122.912,354.275,117.118,354.364z"/>
			<polygon style="fill:#152047;" points="78.757,309.68 105.08,340.342 105.08,351.818 			"/>
			<path style="fill:#152047;" d="M151.302,327.913l-2.719-1.866c0.788-9.966,1.116-19.801-0.806-30.329
				C147.993,296.431,151.612,308.599,151.302,327.913z"/>
			<polygon style="fill:#BB2B2B;" points="192.678,352.817 191.298,364.265 194.82,364.277 194.303,353.078 			"/>
			<path style="fill:#152047;" d="M160.022,333.9l2.109,1.448c4.106,2.822,9.441,3.178,13.885,0.909l1.274-0.648
				C172.778,330.867,165.698,331.29,160.022,333.9z"/>
			<path style="fill:#152047;" d="M146.753,362.362l0.165,2.865l-16.494-3.003l0.003-0.914
				C130.427,361.31,138.671,361.945,146.753,362.362z"/>
			<polyline style="fill:none;stroke:#152047;stroke-width:0.9375;stroke-miterlimit:10;" points="129.689,331.697 134.949,339.407 
				147.215,342.058 			"/>
			<g>
				<path style="fill:#FDBED1;" d="M145.845,430.265c0.174,5.95-13.246,11.17-29.975,11.658c-16.728,0.488-30.43-3.939-30.604-9.889
					c-0.174-5.95,13.246-11.17,29.975-11.658C131.969,419.887,145.671,424.314,145.845,430.265z"/>
				<g>
					<path style="fill:#120654;" d="M141.854,421.371h-0.008c-0.001-1.292-1.027-2.474-2.467-2.474H97.292
						c-0.896,0-1.723,0.485-2.159,1.268l-5.56,9.977c-0.226,0.405-0.312,0.83-0.301,1.243h-0.015v2.878h0.021
						c0.101,1.211,1.089,2.276,2.454,2.276h42.087c0.896,0,1.723-0.485,2.159-1.268l5.56-9.977c0.21-0.377,0.29-0.771,0.294-1.157
						l0.018,0L141.854,421.371z"/>
					<path style="fill:#281F6E;" d="M133.819,433.818H91.732c-1.886,0-3.077-2.027-2.159-3.675l5.56-9.977
						c0.436-0.783,1.263-1.269,2.159-1.269h42.087c1.886,0,3.077,2.027,2.159,3.675l-5.56,9.977
						C135.542,433.332,134.716,433.818,133.819,433.818z"/>
					<path style="fill:#FFFFFF;" d="M140.667,422.086l-0.94,1.69l-1.89,3.4l-0.97,1.73l-1.76,3.16c-0.26,0.46-0.75,0.75-1.29,0.75
						h-42.08c-0.53,0-1.01-0.27-1.27-0.72c-0.27-0.46-0.28-1.01-0.02-1.47l1.91-3.43l3.65-6.54c0.26-0.47,0.75-0.76,1.29-0.76h42.08
						c0.53,0,1,0.27,1.27,0.73C140.917,421.076,140.917,421.626,140.667,422.086z"/>
					<g>
						<g>
							<path style="fill:#D1D1D1;" d="M106.567,432.816h-10.29l-3.92-5.62l3.65-6.54c0.26-0.47,0.75-0.76,1.29-0.76h0.26
								L106.567,432.816z"/>
							<polygon style="fill:#D1D1D1;" points="112.997,432.816 108.737,432.816 99.727,419.896 103.987,419.896 							"/>
						</g>
						<g>
							<path style="fill:#D1D1D1;" d="M136.867,428.906l-1.76,3.16c-0.26,0.46-0.75,0.75-1.29,0.75h-4.51l-9.01-12.92h10.28
								L136.867,428.906z"/>
							<polygon style="fill:#D1D1D1;" points="139.727,423.776 137.837,427.176 132.757,419.896 137.017,419.896 							"/>
						</g>
					</g>
				</g>
				<g>
					<path style="fill:#802AD7;" d="M48.733,380.821h44.714c2.252,0,4.077,1.825,4.077,4.077v20.76l6.054,8.848
						c0.69,1.008-0.257,2.328-1.433,1.997l-13.874-3.897l0.075-0.067H48.733c-2.252,0-4.077-1.825-4.077-4.077v-23.565
						C44.656,382.646,46.481,380.821,48.733,380.821z"/>
					<g>
						<g>
							<path style="fill:#FFF0FF;" d="M50.889,388.932h40.007c1.09,0,1.973-0.883,1.973-1.973l0,0c0-1.09-0.883-1.973-1.973-1.973
								H50.889c-1.09,0-1.973,0.883-1.973,1.973l0,0C48.916,388.048,49.799,388.932,50.889,388.932z"/>
							<path style="fill:#FFF0FF;" d="M50.859,406.817h18.03c1.09,0,1.973-0.883,1.973-1.973l0,0c0-1.09-0.883-1.973-1.973-1.973
								h-18.03c-1.09,0-1.973,0.883-1.973,1.973l0,0C48.886,405.934,49.769,406.817,50.859,406.817z"/>
							<path style="fill:#FFF0FF;" d="M50.859,398.34h31.932c1.09,0,1.973-0.883,1.973-1.973l0,0c0-1.09-0.883-1.973-1.973-1.973
								H50.859c-1.09,0-1.973,0.883-1.973,1.973l0,0C48.886,397.457,49.769,398.34,50.859,398.34z"/>
						</g>
					</g>
				</g>
			</g>
		</g>
		<g>
			<g>
				<path style="fill:#FF9E37;" d="M107.187,63.894c0,2.161-1.752,3.912-3.912,3.912c-2.161,0-3.912-1.752-3.912-3.912
					c0-2.161,1.751-3.912,3.912-3.912C105.435,59.982,107.187,61.734,107.187,63.894z"/>
			</g>
			<g>
				<path style="fill:#FF9E37;" d="M318.403,148.782c0,1.528-1.239,2.766-2.766,2.766c-1.528,0-2.766-1.238-2.766-2.766
					c0-1.528,1.238-2.766,2.766-2.766C317.165,146.016,318.403,147.254,318.403,148.782z"/>
			</g>
			<g>
				<path style="fill:#FFFFFF;" d="M150.544,118.469c0,1.528-1.239,2.766-2.766,2.766c-1.528,0-2.766-1.239-2.766-2.766
					c0-1.528,1.238-2.766,2.766-2.766C149.305,115.702,150.544,116.941,150.544,118.469z"/>
			</g>
			<g>
				<path style="fill:#FFFFFF;" d="M172.077,263.99c0,1.528-1.238,2.766-2.766,2.766c-1.528,0-2.766-1.239-2.766-2.766
					c0-1.528,1.238-2.766,2.766-2.766C170.838,261.224,172.077,262.462,172.077,263.99z"/>
			</g>
			<g>
				<path style="fill:#FF9E37;" d="M446.468,237.888c0,1.528-1.238,2.766-2.766,2.766c-1.528,0-2.766-1.238-2.766-2.766
					c0-1.528,1.238-2.766,2.766-2.766C445.229,235.122,446.468,236.361,446.468,237.888z"/>
			</g>
			<g>
				<path style="fill:#FF9E37;" d="M409.905,83.327c0,1.528-1.238,2.766-2.766,2.766c-1.528,0-2.766-1.239-2.766-2.766
					c0-1.528,1.239-2.766,2.766-2.766C408.666,80.561,409.905,81.799,409.905,83.327z"/>
			</g>
			<g>
				<path style="fill:#FFFFFF;" d="M367.799,231.37c0,1.528-1.238,2.766-2.766,2.766c-1.528,0-2.766-1.239-2.766-2.766
					c0-1.528,1.238-2.766,2.766-2.766C366.56,228.603,367.799,229.842,367.799,231.37z"/>
			</g>
			<g>
				<path style="fill:#FF9E37;" d="M227.948,142.6c-4.729,0-8.577-3.848-8.577-8.577c0-4.729,3.848-8.577,8.577-8.577
					c4.729,0,8.577,3.848,8.577,8.577C236.525,138.753,232.678,142.6,227.948,142.6z M227.948,126.447
					c-4.178,0-7.577,3.399-7.577,7.577c0,4.178,3.399,7.577,7.577,7.577c4.178,0,7.577-3.399,7.577-7.577
					C235.525,129.846,232.126,126.447,227.948,126.447z"/>
			</g>
			<g>
				<path style="fill:#FF9E37;" d="M38.723,118.969c-4.729,0-8.577-3.848-8.577-8.577c0-4.729,3.848-8.577,8.577-8.577
					c4.729,0,8.577,3.848,8.577,8.577C47.3,115.121,43.453,118.969,38.723,118.969z M38.723,102.815
					c-4.178,0-7.577,3.399-7.577,7.577c0,4.178,3.399,7.577,7.577,7.577c4.178,0,7.577-3.399,7.577-7.577
					C46.3,106.214,42.901,102.815,38.723,102.815z"/>
			</g>
			<g>
				<path style="fill:#FFFFFF;" d="M264.859,227.448c-4.73,0-8.577-3.848-8.577-8.577c0-4.729,3.848-8.577,8.577-8.577
					c4.728,0,8.576,3.848,8.576,8.577C273.435,223.6,269.588,227.448,264.859,227.448z M264.859,211.294
					c-4.178,0-7.577,3.399-7.577,7.577c0,4.178,3.399,7.577,7.577,7.577c4.178,0,7.576-3.399,7.576-7.577
					C272.435,214.693,269.037,211.294,264.859,211.294z"/>
			</g>
			<g>
				<path style="fill:#FFFFFF;" d="M400.27,138.436c-4.729,0-8.576-3.848-8.576-8.577c0-4.729,3.848-8.577,8.576-8.577
					c4.729,0,8.577,3.848,8.577,8.577C408.847,134.588,404.999,138.436,400.27,138.436z M400.27,122.282
					c-4.178,0-7.576,3.399-7.576,7.577c0,4.178,3.398,7.577,7.576,7.577c4.178,0,7.577-3.399,7.577-7.577
					C407.847,125.681,404.447,122.282,400.27,122.282z"/>
			</g>
			<g>
				<path style="fill:#FF9E37;" d="M305.726,85.127l1.991,1.028c0.338,0.174,0.74,0.171,1.075-0.008l1.975-1.058
					c0.844-0.452,1.84,0.26,1.685,1.205l-0.362,2.211c-0.061,0.375,0.066,0.757,0.34,1.02l1.616,1.552
					c0.691,0.663,0.321,1.83-0.625,1.975l-2.215,0.339c-0.376,0.058-0.699,0.296-0.865,0.639l-0.976,2.017
					c-0.417,0.862-1.641,0.871-2.072,0.016l-1.007-2.002c-0.171-0.34-0.498-0.573-0.874-0.625l-2.22-0.305
					c-0.949-0.13-1.336-1.292-0.655-1.965l1.592-1.576c0.27-0.267,0.391-0.651,0.324-1.025l-0.396-2.205
					C303.891,85.415,304.875,84.688,305.726,85.127z"/>
			</g>
			<g>
				<path style="fill:#FFFFFF;" d="M428.118,191.681c-0.629,0-1.194-0.348-1.478-0.911l-1.007-2.003
					c-0.098-0.192-0.283-0.325-0.497-0.355l-2.22-0.305c-0.628-0.086-1.144-0.514-1.344-1.116c-0.201-0.602-0.046-1.253,0.405-1.7
					l1.593-1.577c0.153-0.152,0.222-0.369,0.184-0.581l-0.396-2.206c-0.112-0.625,0.136-1.247,0.646-1.624
					c0.51-0.377,1.177-0.431,1.743-0.14l1.991,1.027c0.191,0.1,0.421,0.098,0.608-0.004l1.975-1.058
					c0.558-0.299,1.227-0.258,1.744,0.113c0.517,0.369,0.773,0.987,0.671,1.614l-0.362,2.211c-0.034,0.213,0.037,0.429,0.192,0.578
					l1.617,1.552c0.458,0.439,0.623,1.088,0.432,1.693c-0.191,0.605-0.7,1.041-1.327,1.137l-2.216,0.339
					c-0.213,0.033-0.396,0.168-0.489,0.362l-0.977,2.017c-0.276,0.571-0.842,0.929-1.477,0.934
					C428.128,191.681,428.123,191.681,428.118,191.681z M424.986,179.979c-0.136,0-0.271,0.044-0.387,0.13
					c-0.205,0.151-0.301,0.392-0.256,0.643l0.396,2.206c0.097,0.536-0.077,1.085-0.465,1.469l-1.593,1.576
					c-0.181,0.179-0.241,0.431-0.16,0.673c0.081,0.242,0.279,0.407,0.532,0.442l2.22,0.305c0.54,0.074,1.008,0.409,1.253,0.895
					l1.007,2.003c0.115,0.228,0.352,0.36,0.591,0.36c0.255-0.002,0.473-0.14,0.584-0.37l0.977-2.017
					c0.236-0.49,0.699-0.832,1.238-0.915l2.216-0.339c0.252-0.039,0.448-0.207,0.525-0.451c0.077-0.243,0.013-0.493-0.171-0.669
					l-1.616-1.552c-0.394-0.377-0.576-0.923-0.487-1.462l0.362-2.211c0.041-0.251-0.059-0.49-0.267-0.638
					c-0.206-0.148-0.463-0.165-0.689-0.045l-1.976,1.058c-0.48,0.257-1.056,0.261-1.54,0.011l-1.991-1.027
					C425.192,180.004,425.089,179.979,424.986,179.979z"/>
			</g>
			<g>
				<path style="fill:#FFFFFF;" d="M162.595,162.7l-1.991,1.027c-0.338,0.174-0.74,0.171-1.075-0.008l-1.975-1.058
					c-0.844-0.452-1.84,0.26-1.685,1.205l0.362,2.211c0.061,0.375-0.066,0.757-0.34,1.02l-1.616,1.552
					c-0.691,0.663-0.321,1.83,0.625,1.975l2.215,0.339c0.376,0.058,0.699,0.296,0.865,0.639l0.976,2.017
					c0.417,0.862,1.641,0.871,2.072,0.016l1.007-2.002c0.171-0.34,0.498-0.574,0.875-0.625l2.22-0.305
					c0.948-0.13,1.336-1.292,0.655-1.965l-1.593-1.576c-0.27-0.267-0.391-0.651-0.324-1.025l0.396-2.205
					C164.431,162.988,163.446,162.261,162.595,162.7z"/>
			</g>
			<g>
				<path style="fill:#FF9E37;" d="M25.007,200.672l1.374,0.709c0.233,0.12,0.511,0.118,0.742-0.006l1.363-0.73
					c0.582-0.312,1.27,0.179,1.163,0.832l-0.25,1.526c-0.042,0.259,0.045,0.522,0.235,0.704l1.115,1.071
					c0.477,0.458,0.222,1.263-0.431,1.363l-1.529,0.234c-0.259,0.04-0.483,0.204-0.597,0.441l-0.674,1.392
					c-0.288,0.595-1.133,0.601-1.43,0.011l-0.695-1.381c-0.118-0.234-0.344-0.396-0.604-0.431l-1.532-0.211
					c-0.654-0.09-0.922-0.891-0.452-1.356l1.099-1.088c0.186-0.185,0.27-0.449,0.224-0.707l-0.273-1.522
					C23.74,200.871,24.42,200.369,25.007,200.672z"/>
			</g>
			<g>
				<path style="fill:#FF9E37;" d="M185.816,83.466l-1.552,0.801c-0.263,0.136-0.577,0.133-0.838-0.006l-1.539-0.824
					c-0.658-0.352-1.434,0.203-1.313,0.939l0.282,1.723c0.048,0.293-0.051,0.59-0.265,0.795l-1.26,1.209
					c-0.538,0.517-0.25,1.426,0.487,1.539l1.726,0.264c0.293,0.045,0.545,0.231,0.674,0.498l0.761,1.572
					c0.325,0.672,1.279,0.679,1.615,0.012l0.785-1.56c0.133-0.265,0.388-0.447,0.682-0.487l1.73-0.238
					c0.739-0.102,1.041-1.007,0.511-1.532l-1.241-1.228c-0.211-0.208-0.305-0.507-0.253-0.799l0.308-1.719
					C187.246,83.69,186.479,83.124,185.816,83.466z"/>
			</g>
			<g>
				<path style="fill:#FF9E37;" d="M474.093,137.661l-1.552,0.801c-0.263,0.136-0.577,0.133-0.838-0.006l-1.539-0.824
					c-0.658-0.352-1.434,0.203-1.313,0.939l0.282,1.723c0.048,0.292-0.051,0.59-0.265,0.795l-1.26,1.209
					c-0.538,0.517-0.25,1.426,0.487,1.539l1.726,0.264c0.293,0.045,0.545,0.231,0.674,0.498l0.761,1.572
					c0.325,0.672,1.279,0.679,1.615,0.012l0.785-1.56c0.133-0.265,0.388-0.447,0.682-0.487l1.73-0.238
					c0.739-0.102,1.041-1.007,0.511-1.532l-1.241-1.229c-0.211-0.208-0.305-0.507-0.253-0.799l0.308-1.719
					C475.523,137.886,474.756,137.319,474.093,137.661z"/>
			</g>
		</g>
	</g>
</g>
</svg>
